<svg version="1.1" xmlns="http://www.w3.org/2000/svg" viewBox="-23.52341172338171 -16.71955755303096 45.04079758548506 43.12802321053185" fill="none" stroke="black" stroke-width="0.6%" vector-effect="non-scaling-stroke">
    <path d="M -1.38544 11.03937 L 0.6129 9.69558 A 1 0.60056 180 0 0 0.86705 9.29554" />
    <path d="M -1.38544 10.23979 L 0.6129 8.896 A 1 0.60056 180 0 0 0.86705 8.49596 A 1 0.60056 180 0 0 0.53316 8.04803 L -1.33147 7.04793 L -1.33147 5.002" />
    <path d="M -2.79741 11.08725 A 1 0.60056 180 0 0 -1.38544 11.03937 L -1.38544 10.23979" />
    <path d="M -2.79741 10.28768 A 1 0.60056 180 0 0 -1.38544 10.23979" />
    <path d="M -22.18952 0.68618 L -2.79741 11.08725 L -2.79741 10.28768" />
    <path d="M -22.52341 0.23826 A 1 0.60056 180 0 0 -22.18952 0.68618 L -22.18952 -0.1134 L -2.79741 10.28768" />
    <path d="M -1.33147 7.04793 L -18.85896 -2.35304 A 1 0.60056 180 0 0 -20.27092 -2.30515 L -22.26926 -0.96136 A 1 0.60056 180 0 0 -22.52341 -0.56132 A 1 0.60056 180 0 0 -22.18952 -0.1134" />
    <path d="M -1.33147 19.04178 L -1.33147 11.00307" />
    <path d="M 0.90609 21.06786 L 0.90609 5.88127" />
    <path d="M 0.90609 21.06786 L -1.33147 19.04178 L -3.80644 16.80072" />
    <path d="M -16.00221 5.89715 L -16.00221 4.00478" />
    <path d="M -16.00221 6.54592 L -16.00221 6.53178 L -16.00221 5.89715 L -14.3788 7.37054 L -12.31475 5.98257" />
    <path d="M -19.4852 4.29227 L -19.4852 14.51046 L -16.5018 16.11063 L -16.5018 3.73683" />
    <path d="M -17.71381 3.08676 L -17.71381 4.26645 L -18.73579 4.95368 L -19.29518 4.65365 L -20.10501 3.11356 L -20.10501 1.80423" />
    <path d="M -19.54562 3.4136 L -20.10501 3.11356" />
    <path d="M -19.54562 3.4136 L -19.54562 2.10426" />
    <path d="M -18.73579 4.95368 L -19.54562 3.4136" />
    <path d="M -16.00221 15.77468 L -16.5018 16.11063" />
    <path d="M -16.00221 15.77468 L -16.00221 9.92852 L -16.00221 6.54592 L -8.30598 13.51476" />
    <path d="M 1.49062 5.65002 A 2 1.53877 29.56765 0 1 -1.19355 5.14492 L -1.86952 4.44444 A 2 1.53877 29.56765 0 1 -2.27684 2.56168 L -2.04043 2.14498 A 2 1.53877 29.56765 0 1 -1.65282 1.73093 L -1.35484 1.53055 A 20 15.38767 209.56765 0 0 12.41597 -5.22109 A 20 15.38767 209.56765 0 0 13.30659 -7.18888" />
    <path d="M 17.14428 -4.8763 L 1.49062 5.65002" />
    <path d="M 17.53189 -5.29035 A 2 1.53877 29.56765 0 1 17.14428 -4.8763" />
    <path d="M 12.29566 -5.01393 A 20 15.38767 209.56765 0 0 13.09735 -6.8512" />
    <path d="M 1.40567 21.52022 L 1.40567 5.70272" />
    <path d="M 3.22327 23.16603 L 0.90609 21.06786" />
    <path d="M -4.30603 17.13667 L -3.80644 16.80072" />
    <path d="M -4.30603 17.13667 L 2.72368 23.50198" />
    <path d="M 3.22327 23.16603 L 2.72368 23.50198" />
    <path d="M -8.32273 3.29813 L -0.06448 -2.25513" />
    <path d="M 2.67141 -4.25638 L 1.1502 -5.637 L 1.01164 -5.76275 L -10.62581 2.06286" />
    <path d="M -14.61784 4.7473 L -16.00221 5.67823" />
    <path d="M -14.56184 7.83904 L -12.02901 6.13583" />
    <path d="M -8.03698 3.45139 L -0.43141 -1.66299" />
    <path d="M -16.00221 6.53178 L -14.56184 7.83904 L -14.3788 7.37054" />
    <path d="M -9.89454 11.28803 L -9.96398 11.22514" />
    <path d="M -11.9472 9.42937 L -12.01664 9.36649" />
    <path d="M -13.99986 7.57071 L -14.0693 7.50783" />
    <path d="M -5.47222 16.08069 L -4.91082 16.58903" />
    <path d="M 0.78597 -5.61101 L 0.82845 -5.88929 L -1.01522 -7.17706 L -12.92334 0.83057" />
    <path d="M -16.00221 5.4285 L -14.82443 4.6365" />
    <path d="M -10.8324 1.95205 L 0.82845 -5.88929" />
    <path d="M -1.85523 -6.8509 L -1.77102 -6.66882" />
    <path d="M -1.85523 -6.8509 L -1.35564 -7.18685 L -1.43795 -7.36482 L -1.8332 -7.29742 L -1.8332 -12.14905" />
    <path d="M -13.31383 0.62112 L -1.43795 -7.36482" />
    <path d="M -1.8332 -7.29742 L -2.99463 -7.09937 L -13.96021 0.27443" />
    <path d="M -19.60273 4.06876 L -20.14705 4.43478 L -19.4852 4.32192" />
    <path d="M -19.4852 6.77472 L -20.03754 6.27458" />
    <path d="M -20.03754 4.67155 L -20.03754 6.27458" />
    <path d="M -20.03754 4.67155 L -20.14705 4.43478" />
    <path d="M -0.20029 24.23696 L -16.00221 9.92852" />
    <path d="M -0.20029 24.23696 L 1.98389 25.40846 L 2.72368 23.50198" />
    <path d="M -4.30603 17.13667 L -4.12335 16.66911 L -1.33147 14.7917" />
    <path d="M -4.61648 16.22155 L -4.12335 16.66911" />
    <path d="M -4.61692 16.22268 L -4.61648 16.22155 L -4.60027 16.22131 L -4.58409 16.22096 L -4.56794 16.22049 L -4.55183 16.21991 L -4.53575 16.21922 L -4.51971 16.21841 L -4.50371 16.21748 L -4.48774 16.21644 L -4.47182 16.21529 L -4.45593 16.21402 L -4.44009 16.21264 L -4.4243 16.21114 L -4.40854 16.20954 L -4.39284 16.20781 L -4.37507 16.20572 L -4.35736 16.20348 L -4.33972 16.2011 L -4.32214 16.19857 L -4.30463 16.19589 L -4.28718 16.19307 L -4.26981 16.1901 L -4.25251 16.18699 L -4.23529 16.18374 L -4.21814 16.18034 L -4.20106 16.1768 L -4.18407 16.17311 L -4.16715 16.16928 L -4.15032 16.16531 L -4.10847 16.15472 L -4.06716 16.14325 L -4.02644 16.13089 L -3.98631 16.11766 L -3.9468 16.10356 L -3.90793 16.0886 L -3.86974 16.07279 L -3.83224 16.05615 L -3.79545 16.03867 L -3.7594 16.02037 L -3.7241 16.00127 L -3.68958 15.98136 L -3.65586 15.96067 L -3.62296 15.93921 L -1.33147 14.3983" />
    <path d="M -5.47014 16.08141 L -4.91082 16.58903" />
    <path d="M 1.72703 5.23332 A 2 1.53877 29.56765 0 1 -0.95714 4.72822 L -1.63311 4.02774 A 2 1.53877 29.56765 0 1 -2.04043 2.14498" />
    <path d="M 17.38069 -5.293 L 1.72703 5.23332 L 1.49062 5.65002" />
    <path d="M 17.36097 -7.58981 A 2 1.53877 29.56765 0 1 17.76829 -5.70705 A 2 1.53877 29.56765 0 1 17.38069 -5.293 L 17.14428 -4.8763" />
    <path d="M 16.685 -8.29029 L 17.36097 -7.58981" />
    <path d="M 14.42166 -8.98841 A 2 1.53877 29.56765 0 1 16.685 -8.29029" />
    <path d="M 14.32219 -2.97859 L 14.32219 12.5132 L 16.55974 13.71332 L 16.55974 -4.48323" />
    <path d="M 17.05933 10.20559 L 17.05933 -4.81918" />
    <path d="M 17.05933 13.37738 L 17.05933 13.36421 L 17.05933 10.20559 L 19.37651 12.30377" />
    <path d="M 17.05933 13.37738 L 16.55974 13.71332" />
    <path d="M 2.48348 25.07252 L 3.22327 23.16603" />
    <path d="M -3.806 16.80112 L -1.33147 15.13711" />
    <path d="M 1.40567 13.29652 L 12.34644 5.93939" />
    <path d="M 12.3468 5.93846 L 12.34644 5.93939" />
    <path d="M 12.3468 5.93846 L 12.84639 5.60251 L 13.02906 5.13495 L 12.54745 4.69785" />
    <path d="M 1.40567 12.95111 L 13.02906 5.13495" />
    <path d="M 2.48348 25.07252 L 1.98389 25.40846" />
    <path d="M -0.06181 -11.19895 L -0.06181 -7.60365" />
    <path d="M -1.28439 -7.19273 L -1.35564 -7.18685" />
    <path d="M -1.15975 -7.07987 L -1.28439 -7.19273 L -1.78398 -6.85679 L -1.65934 -6.74392" />
    <path d="M 1.1502 -10.54888 L 1.1502 -5.637" />
    <path d="M 12.3468 5.93846 L 14.32219 7.72715" />
    <path d="M 14.32219 11.10976 L 10.20355 7.38038" />
    <path d="M -1.78398 -6.85679 L -1.85523 -6.8509" />
    <path d="M 12.39537 5.03914 L 12.40287 5.02679 L 12.4102 5.01436 L 12.41736 5.00184 L 12.42435 4.98924 L 12.43118 4.97656 L 12.43783 4.9638 L 12.44432 4.95096 L 12.45063 4.93805 L 12.45678 4.92506 L 12.46275 4.912 L 12.46855 4.89887 L 12.47417 4.88566 L 12.47963 4.87238 L 12.48491 4.85904 L 12.66664 4.3907 A 2 1.48248 21.20816 0 1 12.21253 4.94431 L 12.0307 5.41289 L 12.06276 5.39067 L 12.09397 5.3677 L 12.1243 5.344 L 12.15374 5.31957 L 12.18226 5.29444 L 12.20986 5.26862 L 12.23651 5.24213 L 12.2622 5.21498 L 12.28692 5.18718 L 12.31065 5.15876 L 12.33337 5.12972 L 12.35507 5.1001 L 12.37574 5.0699 L 12.39537 5.03914 Z" />
    <path d="M 12.48491 4.85904 L 12.48493 4.85897 L 12.48496 4.85891 L 12.48498 4.85884 L 12.48501 4.85878 L 12.48503 4.85871 L 12.48506 4.85864 L 12.48508 4.85858 L 12.48511 4.85851 L 12.48514 4.85845 L 12.48516 4.85838 L 12.48519 4.85832 L 12.48521 4.85825 L 12.48524 4.85819 L 12.48526 4.85812" />
    <path d="M 1.40567 12.5577 L 12.0307 5.41289" />
    <path d="M -3.44113 15.47063 A 2 1.48248 21.20816 0 1 -6.18379 15.08936 L -6.36591 15.55869 L -7.77634 14.28156 A 2 1.48248 21.20816 0 1 -8.35963 12.8337 L -8.35799 12.82946" />
    <path d="M -4.61692 16.22268 A 2 1.48248 21.20816 0 1 -6.36591 15.55869" />
    <path d="M 3.63082 -3.62467 L 1.33429 -3.62195 L -4.29301 5.45949" />
    <path d="M -5.48356 11.08427 L -4.81489 10.00516" />
    <path d="M -2.57061 6.38331 L -1.56484 4.76017" />
    <path d="M 0.45401 1.50211 L 3.63082 -3.62467" />
    <path d="M -5.48356 11.08427 L -6.93551 11.14371" />
    <path d="M -7.98402 11.41611 L -7.33946 11.41534" />
    <path d="M -6.53729 9.08135 L -7.98402 11.41611" />
    <path d="M -7.26169 11.17626 A 0.07031 0.03466 165.82374 0 1 -7.21692 11.1968" />
    <path d="M -7.35326 11.23124 A 0.07031 0.03466 165.82374 0 1 -7.26169 11.17626" />
    <path d="M 16.43035 -13.77331 L 15.9024 -11.87671 L 15.81548 -11.73645" />
    <path d="M 19.8761 11.96782 L 17.05933 9.41728" />
    <path d="M 14.32219 6.93883 L 12.84639 5.60251" />
    <path d="M 19.8761 11.96782 L 19.37651 12.30377" />
    <path d="M 18.63672 14.21025 L 19.37651 12.30377" />
    <path d="M 18.63672 14.21025 L 17.05933 13.36421" />
    <path d="M 19.13631 13.87431 L 19.8761 11.96782" />
    <path d="M 1.64978 -10.28093 L 1.64978 -5.18359" />
    <path d="M -0.39487 -7.37969 L -0.06181 -7.60365" />
    <path d="M -0.39487 -11.37758 L -0.39487 -7.37969" />
    <path d="M -0.95425 -7.67972 L -0.39487 -7.37969" />
    <path d="M -0.95425 -11.67762 L -0.95425 -7.67972" />
    <path d="M 17.05933 -2.04122 A 1 0.60056 180 0 0 18.2649 -2.17452 L 18.2649 -2.9741 L 20.26324 -4.31788 A 1 0.60056 180 0 0 20.51738 -4.71793 L 20.51738 -3.91835" />
    <path d="M -0.39487 -11.37758 L 9.72898 -5.94761" />
    <path d="M 11.83687 -4.81702 L 12.09031 -4.68109" />
    <path d="M -2.53919 -12.5277 L -0.95425 -11.67762" />
    <path d="M -2.87307 -12.97563 A 1 0.60056 180 0 0 -2.53919 -12.5277 L -2.53919 -13.32728 L 10.43954 -6.36607" />
    <path d="M 20.26324 -3.51831 A 1 0.60056 180 0 0 20.51738 -3.91835" />
    <path d="M 18.2649 -2.17452 L 20.26324 -3.51831 L 20.26324 -4.31788" />
    <path d="M -1.8332 -0.61077 L -1.8332 -0.72035" />
    <path d="M -8.40857 13.41818 L -8.34694 13.37673" />
    <path d="M -10.17055 11.81904 L -8.40857 13.41818 L -8.36299 13.30151" />
    <path d="M -10.45966 11.55846 L -7.31283 9.44237" />
    <path d="M -12.22164 9.95932 L -10.45966 11.55846 L -10.27662 11.08997 L -6.9558 8.85688" />
    <path d="M -12.51075 9.69875 L -9.34953 7.57299" />
    <path d="M -5.3575 4.88854 L -3.87212 3.88969" />
    <path d="M -14.27273 8.09961 L -12.51075 9.69875 L -12.32771 9.23025 L -9.63528 7.41973" />
    <path d="M 12.13432 2.77133 A 2 1.48248 21.20816 0 1 12.66664 4.3907" />
    <path d="M 12.21253 4.94431 L 1.40567 12.21139" />
    <path d="M -1.33147 14.05198 L -3.44113 15.47063 L -3.62296 15.93921" />
    <path d="M 5.87456 4.80506 L 4.76394 6.32532" />
    <path d="M 4.75005 6.31739 L 4.76394 6.32532" />
    <path d="M 4.66575 6.45343 L 3.26415 7.78645" />
    <path d="M 3.22717 7.75975 L 3.26415 7.78645" />
    <path d="M 3.14135 7.89825 L 1.47606 9.01807" />
    <path d="M 1.40567 8.95433 L 1.47606 9.01807" />
    <path d="M -3.39969 10.76422 L -5.28321 11.07309" />
    <path d="M -5.33431 10.96915 L -5.28321 11.07309" />
    <path d="M -5.41829 10.97894 A 20 14.82484 201.20816 0 0 -5.33431 10.96915" />
    <path d="M -7.67243 11.63924 L -6.93551 11.14371" />
    <path d="M -7.59422 13.81223 A 2 1.48248 21.20816 0 1 -8.12654 12.19286 A 2 1.48248 21.20816 0 1 -7.67243 11.63924" />
    <path d="M -6.18379 15.08936 L -7.59422 13.81223 L -7.77634 14.28156" />
    <path d="M 10.72389 1.4942 L 12.13432 2.77133" />
    <path d="M 8.60475 0.86611 A 2 1.48248 21.20816 0 1 10.72389 1.4942" />
    <path d="M -9.98751 11.35054 L -8.35799 12.82946" />
    <path d="M -10.17055 11.81904 L -9.98751 11.35054" />
    <path d="M -8.30696 12.65782 L -8.31152 12.66976 L -8.31593 12.68175 L -8.32021 12.6938 L -8.32434 12.70589 L -8.32834 12.71804 L -8.3322 12.73023 L -8.33591 12.74248 L -8.33949 12.75477 L -8.34293 12.76711 L -8.34622 12.77949 L -8.34938 12.79192 L -8.35239 12.80439 L -8.35526 12.81691 L -8.35799 12.82946" />
    <path d="M 3.47101 -4.25733 L 3.63082 -3.62467" />
    <path d="M 1.17449 -4.2546 L 1.33429 -3.62195" />
    <path d="M 3.47101 -4.25733 L 1.17449 -4.2546 L -4.70719 5.23734" />
    <path d="M -8.14383 10.78346 L -7.98402 11.41611" />
    <path d="M -6.95147 8.8592 L -8.14383 10.78346" />
    <path d="M 15.74107 -14.04991 L 16.43035 -13.77331" />
    <path d="M 15.21311 -12.15331 L 15.9024 -11.87671" />
    <path d="M 15.74107 -14.04991 L 15.21311 -12.15331 L 12.84114 -8.32538" />
    <path d="M 11.36569 -6.98886 L 15.74107 -14.04991" />
    <path d="M 19.13631 13.87431 L 18.63672 14.21025" />
    <path d="M 12.20874 -5.41715 L 12.44149 -5.29231" />
    <path d="M 17.05933 -2.8408 A 1 0.60056 180 0 0 18.2649 -2.9741" />
    <path d="M 1.64978 -9.24378 L 1.92394 -10.13388" />
    <path d="M -2.61892 -14.17525 A 1 0.60056 180 0 0 -2.87307 -13.77521 L -2.87307 -12.97563" />
    <path d="M -2.87307 -13.77521 A 1 0.60056 180 0 0 -2.53919 -13.32728" />
    <path d="M -0.62058 -15.51904 L -2.61892 -14.17525" />
    <path d="M 0.79138 -15.56692 A 1 0.60056 180 0 0 -0.62058 -15.51904" />
    <path d="M 20.1835 -5.16585 L 17.92582 -6.37677" />
    <path d="M 12.71743 -9.17032 L 0.79138 -15.56692" />
    <path d="M 20.51738 -4.71793 A 1 0.60056 180 0 0 20.1835 -5.16585" />
    <path d="M -7.42923 9.63023 L -9.98751 11.35054" />
    <path d="M -12.22164 9.95932 L -12.03859 9.49083 L -10.27662 11.08997" />
    <path d="M -3.98852 4.07755 L -5.26685 4.93716" />
    <path d="M -9.25888 7.62161 L -12.03859 9.49083" />
    <path d="M -5.64325 4.73528 L -3.50519 3.29755" />
    <path d="M -14.27273 8.09961 L -14.08968 7.63112 L -12.32771 9.23025" />
    <path d="M -0.54781 -1.47513 L -7.94633 3.50001" />
    <path d="M -11.93836 6.18445 L -14.08968 7.63112" />
    <path d="M 12.92086 -8.40176 L 15.19329 -12.06905 L 14.3507 -10.31922 L 14.21727 -10.10388" />
    <path d="M 15.19329 -12.06905 L 15.85382 -11.71595 L 15.01124 -9.96613 L 14.92447 -9.82611" />
    <path d="M 14.3507 -10.31922 L 15.01124 -9.96613" />
    <path d="M 14.31698 -10.24102 L 14.93591 -9.8183 L 13.79509 -8.24931 L 10.15607 -2.37659" />
    <path d="M 5.87456 4.80506 L 8.10858 1.19976" />
    <path d="M 10.56297 -2.76117 L 10.8041 -3.15031" />
    <path d="M 10.87824 -3.26997 L 11.31528 -3.97526" />
    <path d="M 11.38942 -4.09492 L 14.93591 -9.8183" />
    <path d="M 7.81956 1.39411 L 4.76394 6.32532" />
    <path d="M 10.77573 -3.30858 A 0.07031 0.00255 124.3326 0 1 10.79198 -3.32888" />
    <path d="M 10.71267 -3.21276 A 0.07031 0.00255 124.3326 0 1 10.77573 -3.30858" />
    <path d="M 11.34613 -4.09308 A 0.07031 0.00255 124.3326 0 1 11.36239 -4.11338" />
    <path d="M 11.28308 -3.99725 A 0.07031 0.00255 124.3326 0 1 11.34613 -4.09308" />
    <path d="M 13.17617 -8.67203 L 13.13129 -8.59961" />
    <path d="M 13.17617 -8.67203 L 13.79509 -8.24931" />
    <path d="M 13.1292 -8.6014 L 13.69447 -8.11729 L 12.27764 -6.75967 L 8.92539 -1.34975" />
    <path d="M 4.66575 6.45343 L 7.78731 1.4158" />
    <path d="M 10.14378 -2.38711 L 13.69447 -8.11729" />
    <path d="M 6.80056 2.07934 L 3.26415 7.78645" />
    <path d="M 9.32728 -1.7661 A 0.07031 0.00869 130.57761 0 1 9.34961 -1.78174" />
    <path d="M 9.25814 -1.67493 A 0.07031 0.00869 130.57761 0 1 9.32728 -1.7661" />
    <path d="M 10.0357 -2.44491 A 0.07031 0.00869 130.57761 0 1 10.05803 -2.46055" />
    <path d="M 9.96656 -2.35374 A 0.07031 0.00869 130.57761 0 1 10.0357 -2.44491" />
    <path d="M 11.71237 -7.24378 L 11.66574 -7.16854" />
    <path d="M 11.71237 -7.24378 L 12.27764 -6.75967" />
    <path d="M 11.65307 -7.18211 L 12.15369 -6.64602 L 10.48841 -5.5262 L 7.26116 -0.31802" />
    <path d="M 3.14135 7.89825 L 6.70879 2.14105" />
    <path d="M 8.82894 -1.28048 L 12.15369 -6.64602" />
    <path d="M 5.04351 3.26087 L 1.47606 9.01807" />
    <path d="M 8.4328 -1.0331 A 0.07031 0.01467 136.95959 0 1 8.46079 -1.04332" />
    <path d="M 8.36205 -0.96299 A 0.07031 0.01467 136.95959 0 1 8.4328 -1.0331" />
    <path d="M 9.98779 -6.06229 L 9.93756 -5.98123" />
    <path d="M 9.98779 -6.06229 L 10.48841 -5.5262" />
    <path d="M 9.90349 -6.0274 L 10.3297 -5.44978 L 8.44839 -4.58955 L 5.26202 0.55266" />
    <path d="M 1.40567 8.95199 L 4.85262 3.38923" />
    <path d="M 7.09715 -0.23303 L 10.3297 -5.44978" />
    <path d="M 2.54122 4.94354 L 1.40567 6.77611" />
    <path d="M 8.02217 -5.16717 L 7.96748 -5.07892" />
    <path d="M 8.02217 -5.16717 L 8.44839 -4.58955" />
    <path d="M 7.93041 -5.14451 L 8.27393 -4.5366 L 6.2132 -3.95271 L 3.04219 1.16473" />
    <path d="M 1.40567 6.54753 L 2.2984 5.10682" />
    <path d="M 5.08169 0.61511 L 8.27393 -4.5366" />
    <path d="M 5.86968 -4.56062 L 5.80835 -4.46166" />
    <path d="M 5.86968 -4.56062 L 6.2132 -3.95271" />
    <path d="M 5.77225 -4.55064 L 6.02639 -3.92426 L 3.82635 -3.62807 L 0.65568 1.48881" />
    <path d="M 2.84933 1.20293 L 6.02639 -3.92426" />
    <path d="M -1.44705 4.88223 L -2.42544 6.46117" />
    <path d="M -4.66972 10.08303 L -5.28321 11.07309" />
    <path d="M 3.57221 -4.25445 L 3.50084 -4.13926" />
    <path d="M 3.57221 -4.25445 L 3.82635 -3.62807" />
    <path d="M 14.31698 -10.24102 L 13.17617 -8.67203" />
    <path d="M 13.1292 -8.6014 L 11.71237 -7.24378" />
    <path d="M 11.65307 -7.18211 L 9.98779 -6.06229" />
    <path d="M 9.90349 -6.0274 L 8.02217 -5.16717" />
    <path d="M 7.93041 -5.14451 L 5.86968 -4.56062" />
    <path d="M 5.77225 -4.55064 L 3.57221 -4.25445" />
    <path d="M 0.6129 9.69558 L 0.6129 8.896" />
    <path d="M -0.95714 4.72822 L -1.19355 5.14492" />
    <path d="M -1.63311 4.02774 L -1.86952 4.44444" />
    <path d="M 0.86705 8.49596 L 0.86705 9.29554" />
    <path d="M -22.52341 -0.56132 L -22.52341 0.23826" />
    <path d="M 17.53189 -5.29035 L 17.76829 -5.70705" />
    <path d="M -8.30696 12.65782 L -8.12654 12.19286" />
    <path d="M -7.18753 11.31317 L -7.21692 11.1968" />
    <path d="M -7.31151 11.39655 L -7.35326 11.23124" />
    <path d="M 13.06597 -6.76008 L 13.04588 -6.76814" />
    <path d="M 12.24289 -4.92603 L 11.98863 -5.06194" />
    <path d="M 12.16915 -4.80599 L 11.91441 -4.94216" />
    <path d="M 12.68048 -5.79223 L 12.5007 -5.88833" />
    <path d="M 12.62193 -5.66407 L 12.42648 -5.76855" />
    <path d="M 10.97461 -3.20415 L 10.79198 -3.32888" />
    <path d="M 10.88005 -3.09844 L 10.71267 -3.21276" />
    <path d="M 11.58922 -3.95846 L 11.36239 -4.11338" />
    <path d="M 11.50411 -3.84629 L 11.28308 -3.99725" />
    <path d="M 9.41693 -1.72409 L 9.34961 -1.78174" />
    <path d="M 9.30452 -1.63521 L 9.25814 -1.67493" />
    <path d="M 10.16359 -2.37015 L 10.05803 -2.46055" />
    <path d="M 10.05968 -2.27399 L 9.96656 -2.35374" />
    <path d="M 8.46976 -1.03371 L 8.46079 -1.04332" />
</svg>